<?xml version="1.0" encoding="UTF-8"?>
<svg width="197px" height="45px" viewBox="0 0 197 45" version="1.1" xmlns="http://www.w3.org/2000/svg" xmlns:xlink="http://www.w3.org/1999/xlink">
    <!-- Generator: Sketch 52.3 (67297) - http://www.bohemiancoding.com/sketch -->
    <title>Site title - Outline</title>
    <desc>Created with Sketch.</desc>
    <g id="Page-1" stroke="none" stroke-width="1" fill="none" fill-rule="evenodd">
        <g id="Desktop" transform="translate(-45.000000, -26.000000)" fill="#3F3939">
            <g id="Title" transform="translate(40.000000, 22.000000)">
                <g id="Site-title---Outline">
                    <path d="M14.168,32.58 C13.916,32.496 13.468,32.3 13.16,32.16 L13.104,32.16 C13.188,32.272 13.216,32.412 13.244,32.524 C13.496,33.056 14,34.316 14.448,35.268 C15.484,34.904 16.296,34.54 16.632,34.372 C16.912,34.232 17.332,34.008 17.276,33.84 C17.22,33.7 16.716,33.56 16.184,33.364 C15.624,33.168 14.588,32.748 14.168,32.58 Z M8.68,28.38 C8.204,28.156 8.148,27.792 8.26,27.54 C8.4,27.316 8.764,27.4 9.044,27.428 C9.38,27.456 10.024,27.596 10.724,27.932 C11.368,28.212 11.704,28.912 12.04,29.584 C12.18,29.892 12.376,30.312 12.544,30.788 C13.076,30.564 13.524,30.34 13.776,30.228 C14.168,30.06 14.728,29.92 15.372,30.228 C16.044,30.508 15.736,30.984 15.26,31.292 C15.008,31.488 14.476,31.712 13.832,31.936 C14.028,32.02 14.224,32.076 14.392,32.132 C14.728,32.216 16.408,32.58 17.08,32.692 C17.752,32.804 18.676,32.972 19.348,33.196 C20.02,33.392 19.992,34.064 19.376,34.54 C18.788,34.96 17.808,35.436 16.464,35.884 C15.96,36.052 15.456,36.22 14.952,36.36 C15.428,37.452 16.38,39.58 16.576,40.056 C16.828,40.616 17.052,41.204 16.94,41.624 C16.8,42.072 16.352,42.464 15.82,42.632 C15.316,42.8 14.644,42.548 13.86,42.072 C13.104,41.596 12.376,41.316 11.2,41.232 C9.996,41.148 8.82,41.344 7.812,41.932 C7.084,42.38 6.776,43.248 6.972,44.06 C7.196,44.872 7.812,45.264 8.764,45.572 C9.688,45.852 10.948,45.88 11.704,45.852 C12.46,45.796 13.496,45.628 14.028,45.544 C14.532,45.46 15.064,45.6 15.54,45.908 C16.044,46.244 16.1,46.72 15.904,46.944 C15.708,47.168 15.26,47.336 14.28,47.42 C13.3,47.532 11.564,47.532 10.192,47.336 C8.764,47.112 7.364,46.58 6.692,45.796 C6.02,44.984 5.852,43.752 6.188,42.688 C6.552,41.624 7.476,41.092 8.428,40.756 C9.38,40.42 10.808,40.28 11.816,40.336 C12.824,40.364 14.028,40.616 14.28,40.7 C14.504,40.784 14.728,40.952 14.98,40.756 C15.176,40.588 14.98,40.056 14.84,39.58 C14.728,39.188 14.168,37.732 13.748,36.696 C13.384,36.808 13.02,36.864 12.768,36.948 C11.956,37.172 10.668,37.424 9.744,37.424 C8.82,37.424 7.952,37.256 7.252,37.004 C6.552,36.752 6.02,36.444 5.684,36.136 C5.376,35.856 5.348,35.464 5.46,35.324 C5.684,35.128 5.964,35.324 6.188,35.492 C6.692,35.856 7.756,36.276 8.512,36.332 C9.296,36.416 10.444,36.332 11.312,36.164 C11.956,36.052 12.684,35.828 13.328,35.632 C12.964,34.792 12.6,33.924 12.264,33.196 C12.152,32.944 12.04,32.692 11.956,32.44 C10.864,32.664 9.968,32.72 9.212,32.664 C8.428,32.608 7.7,32.328 7.252,32.132 C6.804,31.936 6.692,31.656 6.888,31.404 C7.028,31.208 7.364,31.264 7.672,31.432 C7.98,31.572 8.512,31.684 9.212,31.712 C9.828,31.712 10.696,31.516 11.424,31.264 C11.284,31.012 11.228,30.816 11.172,30.704 C10.976,30.256 10.5,29.668 9.94,29.22 C9.52,28.884 9.128,28.604 8.68,28.38 Z M35.252,38.6 C35.392,38.712 35.504,38.824 35.644,38.908 C35.672,38.348 35.756,37.816 35.84,37.34 C35.728,37.396 35.644,37.48 35.532,37.536 C34.972,37.872 34.916,38.264 35.252,38.6 Z M37.996,34.288 L37.632,34.288 C37.632,34.344 37.604,34.4 37.576,34.456 C37.464,34.792 37.408,35.184 37.324,35.548 C37.772,35.296 38.22,35.016 38.36,34.904 C38.64,34.708 38.78,34.316 37.996,34.288 Z M46.228,38.964 C47.012,40.056 47.32,41.428 47.32,42.576 C47.348,43.696 46.984,44.704 46.312,45.572 C45.668,46.412 44.436,47.112 43.288,47.504 C42.168,47.896 40.6,47.98 39.312,47.728 C38.052,47.476 36.764,46.804 36.176,45.712 C35.56,44.536 35.308,43.192 35.42,41.54 C35.42,41.204 35.448,40.84 35.476,40.504 C35.364,40.448 35.252,40.364 35.14,40.308 C34.3,39.804 33.908,39.412 33.908,38.796 C33.88,38.124 34.412,37.564 34.804,37.284 C35.084,37.06 35.476,36.78 35.952,36.444 C36.148,35.408 36.288,34.624 36.428,34.008 C36.26,33.952 36.12,33.868 35.924,33.812 C35.168,33.504 34.664,33.14 34.328,32.524 C33.992,31.908 33.964,31.264 34.188,31.208 C34.636,31.04 34.86,31.572 35.28,31.936 C35.644,32.216 36.176,32.468 36.736,32.608 C36.82,32.272 36.904,31.992 36.932,31.712 C37.072,31.096 37.184,30.676 37.24,30.172 C37.324,29.668 37.268,29.22 37.184,28.856 C37.072,28.52 36.848,28.072 36.596,27.82 C36.344,27.568 36.204,27.344 36.316,27.148 C36.428,26.952 36.708,26.896 37.1,27.008 C37.604,27.148 38.22,27.54 38.696,27.988 C39.172,28.464 39.06,29.332 38.696,30.48 C38.5,31.152 38.22,32.048 37.996,32.888 C38.444,32.972 38.92,33.028 39.368,33.056 C40.18,33.112 40.712,33.336 40.88,33.784 C41.048,34.26 40.824,34.736 40.292,35.044 C39.788,35.38 38.836,35.828 37.912,36.276 C37.66,36.388 37.408,36.5 37.184,36.612 C37.072,37.2 36.988,37.788 36.932,38.376 C36.876,38.768 36.82,39.104 36.764,39.468 C37.408,39.692 38.612,39.86 39.2,39.832 C39.788,39.776 40.18,39.832 40.516,40.056 C40.852,40.252 41.132,40.756 41.02,41.008 C40.936,41.26 40.656,41.4 40.096,41.456 C39.172,41.54 38.136,41.428 37.38,41.232 C37.156,41.176 36.904,41.092 36.68,41.036 C36.652,41.428 36.652,41.848 36.68,42.296 C36.736,43.696 37.184,45.012 38.332,45.796 C39.452,46.58 41.496,46.776 43.092,46.132 C44.66,45.544 45.528,44.228 45.556,42.912 C45.612,41.596 45.444,40.616 44.828,39.44 C44.268,38.32 43.568,37.62 42.924,37.06 C42.308,36.528 41.748,36.22 41.524,36.08 C41.272,35.968 41.076,35.8 41.188,35.604 C41.244,35.464 41.524,35.464 41.72,35.548 C42.14,35.716 42.448,35.828 43.176,36.304 C44.38,37.116 45.444,37.872 46.228,38.964 Z M67.312,34.288 C67.536,32.748 67.536,31.432 67.48,30.312 C66.22,30.648 64.988,31.208 63.952,31.936 C62.468,33 61.18,34.512 60.62,36.052 C60.032,37.592 60.032,39.328 60.396,40.308 C60.788,41.26 61.74,41.456 62.86,41.092 C63.952,40.756 64.876,40.084 65.688,38.796 C66.5,37.536 67.06,36.108 67.312,34.288 Z M77.28,33.14 C77.84,34.176 78.176,35.016 78.288,36.556 C78.372,38.096 78.288,39.132 77.924,40.42 C77.532,41.708 76.664,43.08 75.208,43.948 C73.78,44.816 72.464,45.264 70.588,45.628 C68.712,45.992 67.032,45.852 66.08,45.656 C65.8,45.628 65.66,45.516 65.688,45.376 C65.688,45.236 65.856,45.124 66.08,45.152 C66.332,45.18 66.892,45.236 67.564,45.236 C68.656,45.208 69.832,45.068 70.924,44.76 C72.016,44.424 73.22,43.892 74.34,43.108 C75.46,42.324 76.468,40.784 76.748,39.132 C77.028,37.536 76.832,35.996 76.384,34.512 C75.88,32.832 75.096,31.824 73.92,31.04 C72.688,30.228 70.812,29.836 69.048,30.004 C68.824,30.032 68.572,30.088 68.32,30.116 C68.376,30.676 68.376,31.572 68.404,32.272 C68.404,33.196 68.32,34.54 67.984,36.108 C67.676,37.704 67.088,39.608 66.024,41.036 C64.96,42.436 63.672,43.388 62.356,43.388 C61.068,43.388 60.116,42.632 59.5,41.26 C58.884,39.888 58.772,38.712 59.136,37.088 C59.472,35.548 60.06,34.288 61.012,33.196 C61.964,32.076 63.028,31.096 64.596,30.256 C66.22,29.416 68.152,28.996 69.888,29.024 C71.596,29.052 73.164,29.472 74.34,30.2 C75.656,30.984 76.664,32.048 77.28,33.14 Z" id="きもの"></path>
                    <path d="M100.916,26.448 L101.168,25.972 C103.408,26.504 104.5,27.316 104.5,28.408 C104.5,28.716 104.36,28.94 104.08,29.164 C103.884,29.304 103.716,29.388 103.548,29.388 C103.184,29.388 102.904,29.108 102.764,28.576 C102.568,27.764 101.952,27.036 100.916,26.448 Z M102.68,41.008 L112.9,41.008 L112.9,39.076 L102.68,39.076 L102.68,41.008 Z M102.68,43.808 L112.9,43.808 L112.9,41.624 L102.68,41.624 L102.68,43.808 Z M102.68,46.832 L112.9,46.832 L112.9,44.424 L102.68,44.424 L102.68,46.832 Z M112.9,48.82 L112.9,47.448 L102.68,47.448 L102.68,48.82 L101.252,48.82 L101.252,40.336 C99.684,42.408 97.78,44.116 95.568,45.404 L95.12,44.9 C98.396,42.464 100.664,39.58 101.952,36.304 L95.876,36.304 L95.568,35.66 L105.732,35.66 L105.732,33.112 L97.976,33.112 L97.668,32.496 L105.732,32.496 L105.732,30.116 L96.884,30.116 L96.632,29.5 L108.476,29.5 L108.56,29.304 C109.232,28.128 109.876,27.008 110.296,25.832 C111.78,26.364 112.508,26.784 112.508,27.12 C112.508,27.372 112.116,27.484 111.36,27.484 C110.828,28.156 110.184,28.8 109.344,29.5 L113.908,29.5 L115.084,28.044 C115.616,28.492 116.12,29.024 116.596,29.64 L116.316,30.116 L107.188,30.116 L107.188,32.496 L112.844,32.496 L113.936,31.124 C114.468,31.572 114.972,32.076 115.448,32.664 L115.112,33.112 L107.188,33.112 L107.188,35.66 L114.804,35.66 L116.036,34.176 C116.624,34.68 117.184,35.212 117.716,35.8 L117.408,36.304 L103.576,36.304 L103.464,36.556 C103.268,37.088 102.932,37.676 102.568,38.32 L102.708,38.348 C102.764,38.404 102.848,38.432 102.904,38.432 L112.676,38.432 L113.628,37.312 C114.72,38.068 115.252,38.572 115.252,38.824 C115.252,38.936 115.14,39.048 115,39.132 L114.356,39.552 L114.356,48.82 L112.9,48.82 Z M142.776,40.56 C142.916,42.1 142.496,43.22 141.544,44.284 C140.508,45.46 139.248,46.132 137.82,46.496 C136.392,46.888 135.02,46.832 133.34,46.524 C131.632,46.16 130.96,45.572 130.96,44.732 C130.932,43.892 132.024,43.22 132.948,43.052 C133.9,42.856 135.02,42.912 135.86,43.584 C136.588,44.172 136.56,44.844 136.224,45.516 C137.568,45.348 138.828,44.956 139.724,44.228 C140.816,43.332 141.32,42.072 141.32,40.784 C141.348,39.496 140.396,37.928 138.828,37.228 C137.26,36.556 135.58,36.5 133.844,37.06 C132.08,37.62 130.96,38.488 130.12,39.608 C129.28,40.7 128.664,42.016 128.44,42.744 C128.216,43.472 127.964,43.864 127.6,44.06 C127.432,44.144 127.124,44.284 126.676,43.92 C126.368,43.668 126.34,43.08 126.368,42.688 C126.396,42.324 127.096,41.428 127.6,40.784 C128.132,40.112 128.86,39.076 129.812,38.04 C130.764,37.004 132.276,35.156 132.892,34.456 C133.48,33.728 135.412,31.404 135.72,30.984 C136.028,30.592 136.168,30.284 136.028,30.172 C135.888,30.032 135.412,30.228 135.132,30.396 C134.824,30.592 133.452,31.404 132.668,31.852 C131.856,32.272 131.268,32.468 130.568,32.468 C129.868,32.468 129.392,32.104 129.112,31.852 C128.832,31.572 128.72,31.152 128.804,30.956 C128.916,30.676 129.196,30.648 129.42,30.732 C129.672,30.788 130.008,30.9 130.372,30.9 C130.736,30.928 131.072,30.872 131.94,30.508 C132.78,30.172 133.9,29.64 134.852,29.136 C135.804,28.632 136.392,28.268 136.924,28.24 C137.484,28.212 138.044,28.548 138.408,28.968 C138.772,29.36 138.8,29.612 138.744,29.864 C138.688,30.116 138.548,30.256 138.156,30.508 C137.764,30.732 136.924,31.46 136.168,32.216 C135.412,33 134.488,34.148 133.816,34.876 C133.816,34.876 133.144,35.604 131.828,36.976 C132.22,36.696 132.612,36.472 133.368,36.192 C134.46,35.8 135.608,35.576 137.036,35.716 C138.492,35.856 139.668,36.304 140.732,37.06 C141.796,37.816 142.636,38.936 142.776,40.56 Z M134.516,45.572 C135.608,44.592 134.628,43.836 133.48,43.836 C132.584,43.864 132.024,44.396 132.416,44.956 C132.64,45.264 133.34,45.544 134.516,45.572 Z M162.6,35.604 C163.104,35.604 163.524,35.8 163.916,36.192 C164.224,36.528 164.42,36.948 164.42,37.424 C164.42,37.76 164.364,38.096 164.168,38.376 C163.776,38.964 163.244,39.244 162.6,39.244 C162.18,39.244 161.76,39.104 161.452,38.824 C161.004,38.432 160.78,37.956 160.78,37.424 C160.78,36.808 161.032,36.304 161.564,35.94 C161.9,35.716 162.208,35.604 162.6,35.604 Z M190.544,45.404 L190.88,45.376 C192.42,40.084 193.652,34.036 194.576,27.344 C196.312,27.736 197.208,28.128 197.208,28.464 C197.208,28.66 196.816,28.856 196.06,28.996 C194.884,34.736 193.456,40.168 191.72,45.32 C193.988,45.124 196.508,44.732 199.14,44.228 C199.14,44.228 199.196,44.228 199.224,44.2 C199.28,44.2 199.28,44.2 199.308,44.172 C198.692,42.436 197.768,40.588 196.508,38.6 L197.012,38.236 C199.028,40.588 200.456,42.772 201.268,44.788 C201.604,45.628 201.8,46.384 201.8,46.944 C201.8,47.784 201.52,48.176 200.932,48.176 C200.54,48.176 200.288,47.756 200.092,46.86 C199.98,46.328 199.784,45.656 199.56,44.9 L199.308,44.984 C196.2,45.908 192.98,46.468 189.844,46.972 C189.704,47.616 189.536,47.952 189.34,47.952 C189.004,47.952 188.668,47.168 188.304,45.6 C189.284,45.516 190.04,45.46 190.544,45.404 Z M184.58,48.82 L184.58,37.816 C183.32,40.364 181.668,42.772 179.652,44.928 L179.12,44.48 C181.64,41.288 183.404,37.9 184.468,34.316 L179.792,34.316 L179.54,33.7 L184.58,33.7 L184.58,29.332 L184.16,29.416 C182.788,29.668 181.472,29.92 180.184,30.088 L179.932,29.5 C183.656,28.744 186.428,27.764 188.304,26.616 C189.452,27.316 190.012,27.82 190.012,28.128 C190.012,28.296 189.872,28.38 189.536,28.38 C189.396,28.38 189.088,28.324 188.696,28.24 C187.94,28.492 187.044,28.744 186.064,28.996 L186.064,33.7 L188.36,33.7 L189.592,31.992 C190.236,32.692 190.74,33.308 191.104,33.896 L190.852,34.316 L186.064,34.316 L186.064,36.556 L186.288,36.668 C189.172,37.956 190.544,39.356 190.544,40.588 C190.544,41.148 190.264,41.428 189.704,41.428 C189.452,41.428 189.172,41.232 188.948,40.84 C188.248,39.608 187.296,38.404 186.064,37.312 L186.064,48.82 L184.58,48.82 Z" id="着る・私"></path>
                    <path d="M15.5,11.338 L10.082,11.338 L10.082,12.514 L15.5,12.514 L15.5,11.338 Z M10.082,15.762 L15.5,15.762 L15.5,14.544 L10.082,14.544 L10.082,15.762 Z M10.082,12.934 L10.082,14.138 L15.5,14.138 L15.5,12.934 L10.082,12.934 Z M16.34,9.448 L16.998,8.608 C16.998,8.608 17.74,9.21 18.202,9.616 C18.16,9.77 18.034,9.84 17.824,9.84 L10.32,9.84 C10.208,10.176 10.068,10.512 9.914,10.82 L10.152,10.932 L15.36,10.932 L15.864,10.372 L16.984,11.226 C16.886,11.338 16.662,11.464 16.41,11.506 L16.41,16.742 C16.396,16.826 15.934,17.05 15.64,17.05 L15.5,17.05 L15.5,16.182 L10.082,16.182 L10.082,16.784 C10.082,16.882 9.69,17.106 9.298,17.106 L9.158,17.106 L9.158,12.22 C8.276,13.606 7.1,14.81 5.644,15.762 L5.476,15.566 C7.198,14.082 8.486,11.982 9.186,9.84 L5.994,9.84 L5.868,9.448 L11.496,9.448 L11.496,8.188 L7.1,8.188 L6.988,7.768 L11.496,7.768 L11.496,6.564 L6.61,6.564 L6.498,6.144 L9.788,6.144 C9.648,5.556 9.13,4.828 8.696,4.394 L8.836,4.282 C10.628,4.758 10.824,5.766 10.474,6.144 L13.232,6.144 C13.554,5.57 13.904,4.828 14.128,4.254 L15.542,4.674 C15.486,4.828 15.304,4.954 15.01,4.94 C14.688,5.304 14.212,5.752 13.736,6.144 L15.976,6.144 L16.606,5.36 C16.606,5.36 17.334,5.934 17.81,6.34 C17.768,6.494 17.628,6.564 17.432,6.564 L12.434,6.564 L12.434,7.768 L15.556,7.768 L16.144,7.04 C16.144,7.04 16.858,7.558 17.278,7.964 C17.236,8.118 17.124,8.188 16.928,8.188 L12.434,8.188 L12.434,9.448 L16.34,9.448 Z M31.4040003,4.268 L32.8600003,4.73 C32.8040003,4.898 32.6360003,5.01 32.3140003,4.996 C31.9220003,6.088 31.4460003,7.138 30.9000003,8.104 L31.5020003,8.342 C31.4600003,8.454 31.3200003,8.552 31.0820003,8.58 L31.0820003,16.77 C31.0540003,16.854 30.6760003,17.078 30.3400003,17.078 L30.1720003,17.078 L30.1720003,9.308 C29.5980003,10.162 28.9820003,10.918 28.3380003,11.534 L28.1420003,11.394 C29.4020003,9.686 30.6760003,6.984 31.4040003,4.268 Z M39.3980003,7.866 L40.0420003,7.026 C40.0420003,7.026 40.7700003,7.628 41.2040003,8.062 C41.1760003,8.216 41.0220003,8.286 40.8400003,8.286 L38.6840003,8.286 L38.6840003,15.594 C38.6840003,16.378 38.5020003,16.896 36.8920003,17.064 C36.8220003,16.742 36.7100003,16.504 36.4580003,16.35 C36.1640003,16.182 35.6600003,16.056 34.7920003,15.93 L34.7920003,15.706 C34.7920003,15.706 36.8920003,15.874 37.2980003,15.874 C37.6340003,15.874 37.7180003,15.762 37.7180003,15.496 L37.7180003,8.286 L32.1600003,8.286 L32.0480003,7.866 L37.7180003,7.866 L37.7180003,4.436 L39.1740003,4.604 C39.1460003,4.814 39.0200003,4.94 38.6840003,4.968 L38.6840003,7.866 L39.3980003,7.866 Z M32.9440003,9.812 L33.0980003,9.714 C36.5980003,11.618 35.8840003,13.872 34.8620003,13.088 C34.6240003,12.052 33.6720003,10.694 32.9440003,9.812 Z M54.6020006,8.258 L55.1200006,8.258 C55.5400006,7.656 55.9180006,7.054 56.2540006,6.452 C56.2120006,6.466 56.1700006,6.466 56.1280006,6.466 L54.6020006,6.466 L54.6020006,8.258 Z M57.9200006,12.416 L57.9340006,12.654 C57.1640006,12.864 56.2540006,13.116 55.1480006,13.41 L55.1480006,15.762 C55.1480006,16.504 55.0080006,16.952 53.7200006,17.078 C53.6780006,16.812 53.6080006,16.56 53.4120006,16.434 C53.2160006,16.28 52.8520006,16.168 52.2360006,16.084 L52.2360006,15.874 C52.2360006,15.874 53.6780006,15.972 53.9580006,15.972 C54.2100006,15.972 54.2800006,15.902 54.2800006,15.706 L54.2800006,13.62 C53.5660006,13.802 52.7960006,13.998 51.9420006,14.194 C51.8860006,14.348 51.7460006,14.46 51.6200006,14.488 L51.1300006,13.382 C51.7740006,13.326 52.9080006,13.172 54.2800006,12.976 L54.2800006,11.548 L54.9240006,11.618 C55.2180006,11.296 55.5120006,10.89 55.7360006,10.554 L53.9860006,10.554 C53.0760006,11.394 52.0680006,12.15 50.9340006,12.766 L50.7800006,12.584 C51.6480006,11.996 52.4600006,11.31 53.2160006,10.554 L51.6340006,10.554 L51.5080006,10.134 L53.6080006,10.134 C54.0420006,9.658 54.4620006,9.154 54.8400006,8.65 L51.0180006,8.65 L50.9200006,8.258 L53.7200006,8.258 L53.7200006,6.466 L51.6620006,6.466 L51.5500006,6.074 L53.7200006,6.074 L53.7200006,4.282 L55.1200006,4.436 C55.0920006,4.632 54.9520006,4.772 54.6020006,4.814 L54.6020006,6.074 L54.8820006,6.074 L55.4560006,5.346 C55.4560006,5.346 56.0020006,5.794 56.4080006,6.172 C56.7020006,5.612 56.9400006,5.08 57.1500006,4.548 L58.4660006,5.108 C58.3820006,5.276 58.2420006,5.332 57.8920006,5.276 C57.4300006,6.228 56.8140006,7.25 56.0580006,8.258 L56.5620006,8.258 L57.1360006,7.53 C57.1360006,7.53 57.7800006,8.048 58.1860006,8.44 C58.1440006,8.58 58.0180006,8.65 57.8360006,8.65 L55.7500006,8.65 C55.3440006,9.154 54.8960006,9.658 54.4200006,10.134 L55.8480006,10.134 L56.3660006,9.602 L57.3460006,10.512 C57.2340006,10.596 57.0660006,10.624 56.7860006,10.652 C56.4220006,10.932 55.9040006,11.352 55.3720006,11.674 L55.6380006,11.702 C55.5960006,11.898 55.4700006,11.982 55.1480006,12.038 L55.1480006,12.85 C56.0300006,12.724 56.9680006,12.57 57.9200006,12.416 Z M61.5880006,7.74 L59.4880006,7.74 C59.3620006,8.076 59.2220006,8.412 59.0820006,8.72 C59.3620006,10.064 59.7680006,11.31 60.3420006,12.416 C61.0280006,11.058 61.4200006,9.504 61.5880006,7.74 Z M63.6040006,7.74 L62.6380006,7.74 C62.3580006,9.896 61.8400006,11.73 60.8320006,13.256 C61.6300006,14.474 62.6940006,15.496 64.1080006,16.21 L64.0660006,16.336 C63.6600006,16.406 63.3380006,16.602 63.2120006,17.022 C61.9520006,16.21 61.0420006,15.146 60.3560006,13.9 C59.2780006,15.23 57.7660006,16.294 55.6100006,17.092 L55.4980006,16.896 C57.5700006,15.874 58.9980006,14.614 59.9640006,13.074 C59.4460006,11.912 59.0960006,10.596 58.8580006,9.196 C58.4100006,10.148 57.8780006,10.988 57.2760006,11.674 L57.0660006,11.548 C58.0880006,9.728 58.9700006,7.04 59.3340006,4.296 L60.8460006,4.66 C60.7900006,4.828 60.6360006,4.968 60.3140006,4.968 C60.1320006,5.78 59.9080006,6.564 59.6420006,7.32 L62.1060006,7.32 L62.7500006,6.494 C62.7500006,6.494 63.5060006,7.096 63.9540006,7.516 C63.9120006,7.67 63.7860006,7.74 63.6040006,7.74 Z M84.8280009,6.396 L75.5600009,6.396 C75.5740009,7.222 75.2800009,7.81 74.9440009,8.09 C74.6500009,8.37 74.1460009,8.426 73.9640009,8.118 C73.8240009,7.838 73.9920009,7.53 74.2720009,7.334 C74.7620009,6.998 75.1820009,6.102 75.1260009,5.192 L75.3640009,5.192 C75.4480009,5.486 75.5040009,5.752 75.5320009,6.004 L79.5640009,6.004 L79.5640009,4.268 L81.0060009,4.422 C80.9780009,4.618 80.8380009,4.758 80.5020009,4.8 L80.5020009,6.004 L84.8140009,6.004 L85.3880009,5.402 L86.4520009,6.424 C86.3540009,6.522 86.2000009,6.55 85.9200009,6.564 C85.5560009,6.97 84.9260009,7.516 84.4360009,7.824 L84.3240009,7.754 C84.5200009,7.922 84.7300009,8.09 84.9120009,8.258 C84.8700009,8.412 84.7440009,8.468 84.5480009,8.468 L79.7040009,8.468 C79.1300009,9.294 78.4020009,10.19 77.7300009,10.792 C79.2980009,10.722 81.2020009,10.61 83.1620009,10.484 C82.6160009,9.952 82.0000009,9.448 81.4820009,9.084 L81.6360009,8.944 C85.8220009,10.386 85.4860009,12.598 84.4220009,12.052 C84.2260009,11.66 83.8620009,11.212 83.4560009,10.778 C81.4960009,11.086 79.0040009,11.422 75.6580009,11.786 C75.5740009,11.94 75.4340009,12.038 75.2940009,12.066 L74.8040009,10.89 C75.3780009,10.89 76.2040009,10.862 77.1980009,10.82 C77.6740009,10.176 78.2060009,9.238 78.5280009,8.468 L75.5320009,8.468 L75.4060009,8.062 L83.1480009,8.062 L83.7640009,7.334 C83.7640009,7.334 83.9880009,7.502 84.2540009,7.712 C84.4360009,7.362 84.6740009,6.83 84.8280009,6.396 Z M84.4500009,16.224 L85.1360009,15.384 C85.1360009,15.384 85.9200009,15.986 86.3960009,16.42 C86.3820009,16.56 86.2420009,16.63 86.0460009,16.63 L73.7960009,16.63 L73.6840009,16.224 L79.5640009,16.224 L79.5640009,13.942 L75.1120009,13.942 L75.0000009,13.522 L79.5640009,13.522 L79.5640009,11.618 L80.9640009,11.758 C80.9360009,11.926 80.8100009,12.052 80.5020009,12.108 L80.5020009,13.522 L83.3160009,13.522 L83.9880009,12.738 C83.9880009,12.738 84.7300009,13.284 85.1920009,13.718 C85.1500009,13.872 85.0240009,13.942 84.8280009,13.942 L80.5020009,13.942 L80.5020009,16.224 L84.4500009,16.224 Z M104.008001,10.68 C104.008001,11.394 103.434001,11.968 102.720001,11.968 C102.006001,11.968 101.432001,11.394 101.432001,10.68 C101.432001,9.966 102.006001,9.392 102.720001,9.392 C103.434001,9.392 104.008001,9.966 104.008001,10.68 Z M123.720002,5.584 L119.744002,5.584 L119.632002,5.178 L122.390002,5.178 L122.978002,4.422 C122.978002,4.422 123.664002,4.968 124.070002,5.36 C124.042002,5.514 123.902002,5.584 123.720002,5.584 Z M122.684002,6.956 L123.286002,6.186 C123.286002,6.186 123.986002,6.732 124.406002,7.138 C124.364002,7.278 124.238002,7.348 124.042002,7.348 L119.058002,7.348 L118.946002,6.956 L122.684002,6.956 Z M119.576002,8.72 L122.418002,8.72 L122.950002,8.034 C122.950002,8.034 123.594002,8.538 123.972002,8.916 C123.930002,9.07 123.804002,9.14 123.622002,9.14 L119.688002,9.14 L119.576002,8.72 Z M123.608002,10.904 L119.688002,10.904 L119.576002,10.512 L122.362002,10.512 L122.922002,9.798 C122.922002,9.798 123.566002,10.316 123.958002,10.694 C123.930002,10.834 123.790002,10.904 123.608002,10.904 Z M120.500002,15.23 L122.894002,15.23 L122.894002,12.724 L120.500002,12.724 L120.500002,15.23 Z M123.748002,12.878 L123.748002,16.07 C123.734002,16.168 123.314002,16.378 123.020002,16.378 L122.894002,16.378 L122.894002,15.622 L120.500002,15.622 L120.500002,16.742 C120.500002,16.826 120.136002,17.036 119.758002,17.036 L119.632002,17.036 L119.632002,11.898 L120.556002,12.304 L122.754002,12.304 L123.244002,11.772 L124.336002,12.612 C124.238002,12.71 124.028002,12.822 123.748002,12.878 Z M130.216002,7.012 L130.832002,6.2 C130.832002,6.2 131.574002,6.774 131.994002,7.208 C131.952002,7.348 131.826002,7.418 131.644002,7.418 L127.458002,7.418 C127.444002,8.23 127.430002,9 127.388002,9.714 L129.950002,9.714 L130.482002,9.154 L131.532002,10.036 C131.434002,10.134 131.252002,10.218 130.972002,10.246 C130.846002,13.844 130.524002,15.888 129.894002,16.504 C129.530002,16.854 129.026002,17.022 128.452002,17.008 C128.452002,16.742 128.396002,16.504 128.228002,16.364 C128.032002,16.21 127.514002,16.084 127.024002,16.014 L127.038002,15.762 C127.570002,15.804 128.466002,15.888 128.760002,15.888 C129.012002,15.888 129.138002,15.86 129.278002,15.734 C129.684002,15.356 129.950002,13.354 130.090002,10.134 L127.360002,10.134 C127.136002,13.158 126.366002,15.356 123.636002,17.092 L123.496002,16.91 C126.282002,14.404 126.534002,11.548 126.464002,7.418 L124.518002,7.418 L124.406002,7.012 L127.346002,7.012 L127.346002,4.408 L128.774002,4.562 C128.746002,4.758 128.606002,4.898 128.270002,4.94 L128.270002,7.012 L130.216002,7.012 Z M146.288002,5.556 L143.320002,5.556 L143.320002,6.914 L146.288002,6.914 L146.288002,5.556 Z M143.320002,8.706 L146.288002,8.706 L146.288002,7.306 L143.320002,7.306 L143.320002,8.706 Z M146.288002,9.112 L143.320002,9.112 L143.320002,16.714 C143.320002,16.854 143.012002,17.078 142.606002,17.078 L142.438002,17.078 L142.438002,4.688 L143.390002,5.15 L146.162002,5.15 L146.624002,4.632 L147.688002,5.43 C147.604002,5.528 147.408002,5.654 147.156002,5.696 L147.156002,9.56 C147.142002,9.63 146.694002,9.84 146.414002,9.84 L146.288002,9.84 L146.288002,9.112 Z M146.316002,14.068 L149.676002,14.068 L149.676002,11.436 L146.316002,11.436 L146.316002,14.068 Z M150.026002,10.512 L151.076002,11.324 C150.992002,11.422 150.810002,11.534 150.558002,11.576 L150.558002,14.992 C150.544002,15.076 150.096002,15.3 149.816002,15.3 L149.676002,15.3 L149.676002,14.46 L146.316002,14.46 L146.316002,15.216 C146.316002,15.3 145.924002,15.496 145.560002,15.496 L145.420002,15.496 L145.420002,10.61 L146.358002,11.03 L149.550002,11.03 L150.026002,10.512 Z M149.732002,8.706 L152.812002,8.706 L152.812002,7.306 L149.732002,7.306 L149.732002,8.706 Z M152.812002,5.556 L149.732002,5.556 L149.732002,6.914 L152.812002,6.914 L152.812002,5.556 Z M153.148002,4.562 L154.324002,5.458 C154.226002,5.57 153.988002,5.696 153.708002,5.738 L153.708002,15.748 C153.708002,16.462 153.554002,16.896 152.252002,17.022 C152.210002,16.77 152.140002,16.532 151.958002,16.42 C151.748002,16.28 151.398002,16.168 150.768002,16.084 L150.768002,15.874 C150.768002,15.874 152.168002,15.972 152.462002,15.972 C152.742002,15.972 152.812002,15.888 152.812002,15.65 L152.812002,9.112 L149.732002,9.112 L149.732002,9.476 C149.732002,9.574 149.354002,9.77 148.976002,9.77 L148.850002,9.77 L148.850002,4.73 L149.802002,5.15 L152.672002,5.15 L153.148002,4.562 Z M174.260002,11.338 L168.842002,11.338 L168.842002,12.514 L174.260002,12.514 L174.260002,11.338 Z M168.842002,15.762 L174.260002,15.762 L174.260002,14.544 L168.842002,14.544 L168.842002,15.762 Z M168.842002,12.934 L168.842002,14.138 L174.260002,14.138 L174.260002,12.934 L168.842002,12.934 Z M175.100002,9.448 L175.758002,8.608 C175.758002,8.608 176.500002,9.21 176.962002,9.616 C176.920002,9.77 176.794002,9.84 176.584002,9.84 L169.080002,9.84 C168.968002,10.176 168.828002,10.512 168.674002,10.82 L168.912002,10.932 L174.120002,10.932 L174.624002,10.372 L175.744002,11.226 C175.646002,11.338 175.422002,11.464 175.170002,11.506 L175.170002,16.742 C175.156002,16.826 174.694002,17.05 174.400002,17.05 L174.260002,17.05 L174.260002,16.182 L168.842002,16.182 L168.842002,16.784 C168.842002,16.882 168.450002,17.106 168.058002,17.106 L167.918002,17.106 L167.918002,12.22 C167.036002,13.606 165.860002,14.81 164.404002,15.762 L164.236002,15.566 C165.958002,14.082 167.246002,11.982 167.946002,9.84 L164.754002,9.84 L164.628002,9.448 L170.256002,9.448 L170.256002,8.188 L165.860002,8.188 L165.748002,7.768 L170.256002,7.768 L170.256002,6.564 L165.370002,6.564 L165.258002,6.144 L168.548002,6.144 C168.408002,5.556 167.890002,4.828 167.456002,4.394 L167.596002,4.282 C169.388002,4.758 169.584002,5.766 169.234002,6.144 L171.992002,6.144 C172.314002,5.57 172.664002,4.828 172.888002,4.254 L174.302002,4.674 C174.246002,4.828 174.064002,4.954 173.770002,4.94 C173.448002,5.304 172.972002,5.752 172.496002,6.144 L174.736002,6.144 L175.366002,5.36 C175.366002,5.36 176.094002,5.934 176.570002,6.34 C176.528002,6.494 176.388002,6.564 176.192002,6.564 L171.194002,6.564 L171.194002,7.768 L174.316002,7.768 L174.904002,7.04 C174.904002,7.04 175.618002,7.558 176.038002,7.964 C175.996002,8.118 175.884002,8.188 175.688002,8.188 L171.194002,8.188 L171.194002,9.448 L175.100002,9.448 Z M190.164002,4.268 L191.620002,4.73 C191.564002,4.898 191.396002,5.01 191.074002,4.996 C190.682002,6.088 190.206002,7.138 189.660002,8.104 L190.262002,8.342 C190.220002,8.454 190.080002,8.552 189.842002,8.58 L189.842002,16.77 C189.814002,16.854 189.436002,17.078 189.100002,17.078 L188.932002,17.078 L188.932002,9.308 C188.358002,10.162 187.742002,10.918 187.098002,11.534 L186.902002,11.394 C188.162002,9.686 189.436002,6.984 190.164002,4.268 Z M198.158002,7.866 L198.802002,7.026 C198.802002,7.026 199.530002,7.628 199.964002,8.062 C199.936002,8.216 199.782002,8.286 199.600002,8.286 L197.444002,8.286 L197.444002,15.594 C197.444002,16.378 197.262002,16.896 195.652002,17.064 C195.582002,16.742 195.470002,16.504 195.218002,16.35 C194.924002,16.182 194.420002,16.056 193.552002,15.93 L193.552002,15.706 C193.552002,15.706 195.652002,15.874 196.058002,15.874 C196.394002,15.874 196.478002,15.762 196.478002,15.496 L196.478002,8.286 L190.920002,8.286 L190.808002,7.866 L196.478002,7.866 L196.478002,4.436 L197.934002,4.604 C197.906002,4.814 197.780002,4.94 197.444002,4.968 L197.444002,7.866 L198.158002,7.866 Z M191.704002,9.812 L191.858002,9.714 C195.358002,11.618 194.644002,13.872 193.622002,13.088 C193.384002,12.052 192.432002,10.694 191.704002,9.812 Z" id="着付教室・訪問着付"></path>
                </g>
            </g>
        </g>
    </g>
</svg>